<svg id="mindoe-logo-0" width="93" height="21" viewBox="0 0 93 21" fill="none"
  xmlns="http://www.w3.org/2000/svg" style="">
  <path d="M21.018 19.5235V0.716309H16.0226L10.4957 14.2978L4.836 0.716309H0V19.5235H3.50743V6.44599L8.928 19.5235H11.9837L17.4043 6.33989V19.5235H21.018Z" fill="#3E3D47"></path>
  <path d="M27.7084 19.5234V6.47242H24.1744V19.5234H27.7084ZM23.7493 2.20168C23.7493 3.36884 24.7324 4.35032 25.9281 4.35032C27.1504 4.35032 28.107 3.36884 28.107 2.20168C28.107 0.981474 27.1504 0 25.9281 0C24.7324 0 23.7493 0.981474 23.7493 2.20168Z" fill="#3E3D47"></path>
  <path d="M34.1402 12.0165C34.1402 10.5045 35.0436 9.31084 36.5848 9.31084C38.2853 9.31084 39.0028 10.4515 39.0028 11.9104V19.5235H42.5368V11.3003C42.5368 8.43547 41.0488 6.12769 37.8071 6.12769C36.3988 6.12769 34.8311 6.73779 34.0339 8.09063V6.47253H30.6062V19.5235H34.1402V12.0165Z" fill="#3E3D47"></path>
  <path d="M57.6998 0.318359H54.2189V7.77225C53.8469 7.08257 52.7841 6.15415 50.5255 6.15415C46.8321 6.15415 44.2546 9.15162 44.2546 12.9714C44.2546 16.9238 46.9118 19.8417 50.6318 19.8417C52.3855 19.8417 53.7141 19.0459 54.2986 18.0114C54.2986 18.6215 54.3784 19.2582 54.4315 19.5234H57.8061C57.7529 18.9929 57.6998 18.0379 57.6998 17.1626V0.318359ZM47.8152 12.9714C47.8152 10.6371 49.2501 9.31078 51.0569 9.31078C52.8638 9.31078 54.2721 10.6106 54.2721 12.9449C54.2721 15.3057 52.8638 16.6851 51.0569 16.6851C49.1969 16.6851 47.8152 15.3057 47.8152 12.9714Z" fill="#3E3D47"></path>
  <path d="M66.5201 16.7115C64.793 16.7115 63.1987 15.4383 63.1987 12.9978C63.1987 10.5309 64.793 9.28415 66.5201 9.28415C68.2473 9.28415 69.8415 10.5309 69.8415 12.9978C69.8415 15.4648 68.2473 16.7115 66.5201 16.7115ZM66.5201 6.07446C62.6141 6.07446 59.6648 8.96583 59.6648 12.9978C59.6648 17.0033 62.6141 19.9212 66.5201 19.9212C70.4261 19.9212 73.3755 17.0033 73.3755 12.9978C73.3755 8.96583 70.4261 6.07446 66.5201 6.07446Z" fill="#3E3D47"></path>
  <path d="M77.857 11.5124C77.9367 10.3187 78.9464 8.93931 80.7798 8.93931C82.7992 8.93931 83.6495 10.2126 83.7027 11.5124H77.857ZM84.0481 14.9077C83.623 16.0749 82.7195 16.8972 81.0721 16.8972C79.3184 16.8972 77.857 15.6505 77.7772 13.9263H87.1304C87.1304 13.8732 87.1835 13.3427 87.1835 12.8387C87.1835 8.64752 84.7655 6.07446 80.7267 6.07446C77.3787 6.07446 74.2964 8.78015 74.2964 12.9448C74.2964 17.3481 77.4584 19.9212 81.0455 19.9212C84.2607 19.9212 86.3332 18.0378 86.9975 15.7831L84.0481 14.9077Z" fill="#3E3D47"></path>
  <path d="M88.1196 17.2952C88.1196 18.6216 89.2091 19.7091 90.5376 19.7091C91.8928 19.7091 92.9822 18.6216 92.9822 17.2952C92.9822 15.9689 91.8928 14.8813 90.5376 14.8813C89.2091 14.8813 88.1196 15.9689 88.1196 17.2952Z" fill="#4928F7"></path>
</svg>