<svg width="391" height="113" viewBox="0 0 391 113" fill="none" xmlns="http://www.w3.org/2000/svg">
<g clip-path="url(#clip0)">
<path d="M274.21 62.23L248.33 0H226.21V86.17H242.25V26.25L267.04 86.17H281.02L305.81 25.77V86.17H322.35V0H299.5L274.21 62.23Z" fill="#364152"/>
<path d="M390.21 55.54C390.21 36.34 379.15 24.54 360.68 24.54C345.36 24.54 331.27 36.94 331.27 56.02C331.27 76.2 345.73 88.02 362.14 88.02C376.84 88.02 386.32 79.4 389.36 69.02L375.87 65.02C373.93 70.37 369.79 74.14 362.26 74.14C354.26 74.14 347.55 68.43 347.19 60.53H390C390 60.28 390.21 57.85 390.21 55.54ZM347.55 49.47C347.857 46.1712 349.411 43.1139 351.896 40.9226C354.381 38.7314 357.609 37.5715 360.92 37.68C370.16 37.68 374.05 43.51 374.29 49.47H347.55Z" fill="#364152"/>
<path d="M16.77 70.1298H55.18V86.1298H0V-0.000155341H16.77V70.1298ZM71.82 19.9298C73.1988 20.0455 74.5867 19.8738 75.8957 19.4255C77.2048 18.9772 78.4065 18.2621 79.425 17.3255C80.4435 16.3889 81.2565 15.2511 81.8126 13.9841C82.3688 12.7171 82.6559 11.3485 82.6559 9.96484C82.6559 8.58117 82.3688 7.21255 81.8126 5.94556C81.2565 4.67857 80.4435 3.54078 79.425 2.60416C78.4065 1.66754 77.2048 0.952478 75.8957 0.504198C74.5867 0.0559185 73.1988 -0.11582 71.82 -0.000155341C70.4412 -0.11582 69.0533 0.0559185 67.7443 0.504198C66.4352 0.952478 65.2335 1.66754 64.215 2.60416C63.1965 3.54078 62.3835 4.67857 61.8274 5.94556C61.2712 7.21255 60.9841 8.58117 60.9841 9.96484C60.9841 11.3485 61.2712 12.7171 61.8274 13.9841C62.3835 15.2511 63.1965 16.3889 64.215 17.3255C65.2335 18.2621 66.4352 18.9772 67.7443 19.4255C69.0533 19.8738 70.4412 20.0455 71.82 19.9298V19.9298ZM127.11 24.7898C120.67 24.7898 113.49 27.5898 109.85 33.7898V26.3698H94.17V86.1698V88.8699C94.101 90.7081 93.3223 92.448 91.9974 93.7242C90.6725 95.0003 88.9045 95.7132 87.065 95.7132C85.2255 95.7132 83.4575 95.0003 82.1326 93.7242C80.8077 92.448 80.029 90.7081 79.96 88.8699V86.1698V26.3698H63.8V86.1698V88.8699C63.7358 91.9656 64.2901 95.0431 65.4305 97.9219C66.5708 100.801 68.2742 103.423 70.441 105.635C72.6077 107.847 75.1941 109.605 78.0487 110.804C80.9032 112.004 83.9685 112.622 87.065 112.622C90.1615 112.622 93.2268 112.004 96.0813 110.804C98.9359 109.605 101.522 107.847 103.689 105.635C105.856 103.423 107.559 100.801 108.7 97.9219C109.84 95.0431 110.394 91.9656 110.33 88.8699V86.1698V51.7798C110.33 44.8498 114.47 39.3798 121.52 39.3798C129.29 39.3798 132.58 44.6098 132.58 51.2898V86.1698H148.74V48.4898C148.74 35.3698 141.94 24.7898 127.11 24.7898V24.7898ZM216.11 26.3698H194.93L174.26 48.6198V-0.000155341H158.1V86.1698H174.26V70.3699L181 63.3198L196.8 86.1698H216.61L192.13 51.5298L216.11 26.3698Z" fill="url(#paint0_linear)"/>
</g>
<defs>
<linearGradient id="paint0_linear" x1="8.41" y1="100.74" x2="196.36" y2="-7.77016" gradientUnits="userSpaceOnUse">
<stop stop-color="#E82B5A"/>
<stop offset="1" stop-color="#FF7FA6"/>
</linearGradient>
<clipPath id="clip0">
<rect width="390.21" height="112.14" fill="white"/>
</clipPath>
</defs>
</svg>
