<svg width="273" height="44" viewBox="0 0 273 44" fill="none"
  xmlns="http://www.w3.org/2000/svg">
  <path d="M2.90329 17.9031C0.954861 15.9245 0 13.4673 0 10.5576C0 7.6478 0.954861 5.19065 2.90329 3.24434C4.84528 1.26569 7.29695 0.276367 10.2583 0.276367C13.781 0.276367 16.9939 2.0287 18.7101 4.84795L14.8197 7.10464C13.9487 5.55922 12.2584 4.68629 10.2583 4.68629C8.50988 4.68629 7.10339 5.22298 6.05821 6.29637C5.01302 7.36975 4.50978 8.77937 4.50978 10.5576C4.50978 12.3358 5.01947 13.7454 6.05821 14.8188C7.09694 15.8922 8.50988 16.4288 10.2583 16.4288C12.2584 16.4288 14.0068 15.4977 14.8197 13.9976L18.7101 16.2607C17.0198 19.0864 13.8326 20.8323 10.2583 20.8323C7.29695 20.8388 4.84528 19.8494 2.90329 17.9031Z" fill="#FFF"/>
  <path d="M25.4135 0.677246H29.3555V20.4443H24.8457V5.44928L21.3553 6.40627L20.2585 2.5395L25.4135 0.677246Z" fill="#FFF"/>
  <path d="M52.1819 0.677246H56.6917V20.4443H53.3109L45.7043 9.71048V20.4378H41.1945V0.677246H44.5752L52.1819 11.4046V0.677246Z" fill="#FFF"/>
  <path d="M64.2725 15.0776C64.7499 16.4032 65.879 17.0562 67.6532 17.0562C68.8081 17.0562 69.7113 16.6877 70.3565 15.9829L73.7372 17.9292C72.3566 19.8755 70.2984 20.839 67.5951 20.839C65.2274 20.839 63.3434 20.1341 61.9047 18.7181C60.4982 17.3084 59.7885 15.5302 59.7885 13.3835C59.7885 11.2626 60.4918 9.48437 61.8724 8.07475C63.2789 6.63279 65.0854 5.92798 67.279 5.92798C69.3371 5.92798 71.0275 6.63279 72.3759 8.07475C73.7566 9.48437 74.434 11.269 74.434 13.3835C74.434 13.9784 74.376 14.5409 74.2663 15.0776H64.2725ZM70.2468 11.9156C69.8275 10.422 68.8403 9.68482 67.2597 9.68482C65.6274 9.68482 64.6144 10.422 64.1886 11.9156H70.2468Z" fill="#FFF"/>
  <path d="M85.2343 10.3895H82.331V15.3878C82.331 16.5194 83.1762 16.7134 85.2343 16.6035V20.4444C82.5568 20.7289 80.6987 20.4703 79.6535 19.6814C78.6083 18.8602 78.1051 17.4506 78.1051 15.3878V10.3895H75.8534V6.32228H78.1051V3.63882L82.331 2.36499V6.31582H85.2343V10.3895Z" fill="#FFF"/>
  <path d="M103.97 6.32227H108.48L103.97 20.4444H100.028L97.7765 12.9048L95.5248 20.4444H91.5828L87.073 6.32227H91.5828L93.6087 13.8877L95.8087 6.32227H99.7507L101.951 13.8877L103.97 6.32227Z" fill="#FFF"/>
  <path d="M116.932 20.839C114.848 20.839 113.074 20.1341 111.635 18.6922C110.196 17.2502 109.467 15.472 109.467 13.3835C109.467 11.2949 110.203 9.54256 111.635 8.10061C113.074 6.65865 114.848 5.92798 116.932 5.92798C119.016 5.92798 120.79 6.66512 122.229 8.10061C123.667 9.54256 124.396 11.2884 124.396 13.3835C124.396 15.472 123.661 17.2502 122.229 18.6922C120.79 20.1341 119.016 20.839 116.932 20.839ZM116.932 16.7135C117.861 16.7135 118.622 16.4032 119.242 15.7824C119.861 15.1617 120.171 14.3728 120.171 13.3835C120.171 12.3941 119.861 11.6053 119.242 10.9845C118.622 10.3638 117.861 10.0534 116.932 10.0534C116.003 10.0534 115.241 10.3638 114.622 10.9845C114.003 11.6053 113.693 12.3941 113.693 13.3835C113.693 14.3728 114.003 15.1617 114.622 15.7824C115.241 16.4032 116.003 16.7135 116.932 16.7135Z" fill="#FFF"/>
  <path d="M131.584 8.83757C132.119 7.03351 133.893 6.04419 135.81 6.04419V10.8421C134.764 10.674 133.81 10.8421 132.906 11.3788C132.035 11.8896 131.584 12.7884 131.584 14.0622V20.4443H127.358V6.32223H131.584V8.83757Z" fill="#FFF"/>
  <path d="M151.875 20.4443H147.081L142.571 14.2045V20.4443H138.345V0.677246H142.571V12.5103L146.797 6.32867H151.726L146.597 13.3897L151.875 20.4443Z" fill="#FFF"/>
  <path d="M160.746 15.9505L164.636 13.6938C165.423 15.5302 166.804 16.4354 168.778 16.4354C170.552 16.4354 171.456 15.8987 171.456 14.8254C171.456 14.2305 171.172 13.7778 170.585 13.4675C170.023 13.1312 168.952 12.7303 167.372 12.31C165.707 11.8574 164.585 11.353 163.372 10.4478C162.217 9.51664 161.572 8.10702 161.572 6.29649C161.572 4.4601 162.217 3.01815 163.514 1.9189C164.836 0.819651 166.391 0.282959 168.191 0.282959C171.43 0.282959 173.965 1.83484 175.404 4.74461L171.598 6.97544C170.894 5.48176 169.907 4.68642 168.191 4.68642C166.836 4.68642 166.075 5.36537 166.075 6.1801C166.075 6.6586 166.301 7.08536 166.752 7.45394C167.23 7.82251 168.191 8.21694 169.623 8.63724L171.456 9.23213C171.881 9.37439 172.443 9.62657 173.088 9.99514C173.765 10.3314 174.269 10.7 174.611 11.0944C175.314 11.8574 175.965 13.1571 175.965 14.7672C175.965 16.6618 175.288 18.1296 173.94 19.2288C172.585 20.3022 170.81 20.8389 168.643 20.8389C164.61 20.8389 161.875 18.9766 160.746 15.9505Z" fill="#FFF"/>
  <path d="M182.837 15.0776C183.314 16.4032 184.443 17.0562 186.217 17.0562C187.372 17.0562 188.275 16.6877 188.921 15.9829L192.301 17.9292C190.921 19.8755 188.863 20.839 186.159 20.839C183.791 20.839 181.908 20.1341 180.469 18.7181C179.062 17.3084 178.359 15.5302 178.359 13.3835C178.359 11.2626 179.062 9.48437 180.443 8.07475C181.849 6.63279 183.656 5.92798 185.85 5.92798C187.908 5.92798 189.598 6.63279 190.946 8.07475C192.327 9.48437 193.005 11.269 193.005 13.3835C193.005 13.9784 192.947 14.5409 192.837 15.0776H182.837ZM188.811 11.9156C188.385 10.422 187.404 9.68482 185.824 9.68482C184.191 9.68482 183.172 10.422 182.753 11.9156H188.811Z" fill="#FFF"/>
  <path d="M200.192 8.83757C200.727 7.03351 202.502 6.04419 204.418 6.04419V10.8421C203.373 10.674 202.418 10.8421 201.514 11.3788C200.643 11.8896 200.192 12.7884 200.192 14.0622V20.4443H195.966V6.32223H200.192V8.83757Z" fill="#FFF"/>
  <path d="M215.947 6.32227H220.625L215.412 20.4444H210.624L205.411 6.32227H210.089L213.018 15.2714L215.947 6.32227Z" fill="#FFF"/>
  <path d="M223.044 4.35011C222.057 3.33492 222.057 1.75071 223.044 0.761391C224.057 -0.253797 225.638 -0.253797 226.625 0.761391C227.638 1.75071 227.638 3.32846 226.625 4.35011C225.638 5.33297 224.057 5.33297 223.044 4.35011ZM222.734 20.4444V6.32229H226.96V20.4444H222.734Z" fill="#FFF"/>
  <path d="M232.031 18.6922C230.625 17.2502 229.922 15.4979 229.922 13.3835C229.922 11.2626 230.625 9.5167 232.031 8.07475C233.47 6.63279 235.244 5.92798 237.386 5.92798C240.09 5.92798 242.515 7.36993 243.754 9.54256L240.064 11.6893C239.554 10.6418 238.657 10.1051 237.328 10.1051C235.496 10.1051 234.141 11.463 234.141 13.3835C234.141 15.3039 235.496 16.6618 237.328 16.6618C238.651 16.6618 239.58 16.1251 240.064 15.0776L243.754 17.1985C242.515 19.4293 240.122 20.839 237.386 20.839C235.244 20.839 233.47 20.1341 232.031 18.6922Z" fill="#FFF"/>
  <path d="M249.503 15.0776C249.98 16.4032 251.109 17.0562 252.883 17.0562C254.038 17.0562 254.942 16.6877 255.587 15.9829L258.967 17.9292C257.587 19.8755 255.529 20.839 252.825 20.839C250.458 20.839 248.574 20.1341 247.135 18.7181C245.728 17.3084 245.025 15.5302 245.025 13.3835C245.025 11.2626 245.728 9.48437 247.109 8.07475C248.516 6.63279 250.322 5.92798 252.516 5.92798C254.574 5.92798 256.264 6.63279 257.613 8.07475C258.993 9.48437 259.671 11.269 259.671 13.3835C259.671 13.9784 259.613 14.5409 259.503 15.0776H249.503ZM255.477 11.9156C255.051 10.422 254.071 9.68482 252.49 9.68482C250.858 9.68482 249.838 10.422 249.419 11.9156H255.477Z" fill="#FFF"/>
  <path d="M268.523 11.6892C270.464 12.116 273.032 13.1312 273 16.2091C273 17.7351 272.439 18.8925 271.31 19.6814C270.181 20.4444 268.8 20.8388 267.142 20.8388C264.18 20.8388 262.155 19.7073 261.084 17.4764L264.748 15.3879C265.116 16.4871 265.929 17.0561 267.142 17.0561C268.155 17.0561 268.664 16.7716 268.664 16.1832C268.664 15.6206 267.568 15.2779 266.213 14.9417C264.271 14.405 261.735 13.448 261.735 10.5641C261.735 9.09628 262.271 7.9647 263.316 7.14997C264.387 6.32876 265.71 5.93433 267.258 5.93433C269.593 5.93433 271.594 7.00771 272.755 8.95403L269.148 10.9003C268.697 10.0791 268.077 9.65884 267.258 9.65884C266.471 9.65884 266.077 9.91102 266.077 10.4477C266.071 11.0103 267.168 11.3206 268.523 11.6892Z" fill="#FFF"/>
  <path d="M85.0923 40.5671L85.944 40.0692C86.2988 41.3042 87.2795 42.0349 88.7957 42.0349C90.2731 42.0349 91.1376 41.3236 91.1376 40.2438C91.1376 39.72 90.9505 39.332 90.5699 39.0605C90.1892 38.7889 89.5634 38.5173 88.6989 38.2328C87.6601 37.8901 86.9827 37.6185 86.6537 37.4051C85.8988 36.9525 85.5182 36.2929 85.5182 35.4265C85.5182 34.5859 85.8149 33.9199 86.3956 33.4349C86.9763 32.937 87.6989 32.6978 88.5698 32.6978C90.1183 32.6978 91.2925 33.5966 91.8473 34.8445L91.0086 35.3165C90.557 34.2238 89.7441 33.6677 88.5698 33.6677C87.3376 33.6677 86.5117 34.3078 86.5117 35.3877C86.5117 35.8856 86.6795 36.2541 87.0214 36.4999C87.3634 36.7456 87.9311 36.9978 88.7118 37.2564L89.4795 37.528C89.6344 37.5732 89.8602 37.6573 90.1634 37.7866C90.4602 37.903 90.686 38 90.828 38.097C91.1118 38.2651 91.6086 38.6078 91.7764 38.9376C91.9635 39.235 92.1312 39.7071 92.1312 40.2179C92.1312 41.0585 91.8215 41.7374 91.2086 42.2547C90.5957 42.7526 89.7892 43.0113 88.7828 43.0113C86.9634 42.9983 85.602 42.0866 85.0923 40.5671Z" fill="#FFF"/>
  <path d="M97.17 32.866H98.1636V42.8239H97.17V32.866Z" fill="#FFF"/>
  <path d="M110.228 32.866H111.222V42.8239H110.37L104.835 34.7153V42.8239H103.841V32.866H104.693L110.228 40.9745V32.866Z" fill="#FFF"/>
  <path d="M126.397 38.0905V38.6014C126.397 39.8364 125.958 40.8775 125.074 41.731C124.197 42.5716 123.016 42.9984 121.538 42.9984C120.035 42.9984 118.783 42.5005 117.803 41.5047C116.822 40.5089 116.325 39.2868 116.325 37.8513C116.325 36.4158 116.822 35.1872 117.803 34.1914C118.783 33.1956 120.029 32.6978 121.538 32.6978C122.461 32.6978 123.3 32.9241 124.067 33.3638C124.835 33.8035 125.429 34.4048 125.842 35.142L124.964 35.6528C124.338 34.4436 123.022 33.6612 121.545 33.6612C120.313 33.6612 119.287 34.0621 118.506 34.8704C117.725 35.6787 117.325 36.6615 117.325 37.8448C117.325 39.0281 117.725 40.0045 118.506 40.8193C119.287 41.6275 120.306 42.0284 121.545 42.0284C122.667 42.0284 123.558 41.7439 124.229 41.1878C124.893 40.6188 125.28 39.8946 125.377 39.0281H121.429V38.0905H126.397Z" fill="#FFF"/>
  <path d="M137.765 42.8239L136.842 40.3732H132.126L131.203 42.8239H130.151L133.971 32.866H134.99L138.81 42.8239H137.765ZM132.487 39.4421H136.487L134.487 34.1075L132.487 39.4421Z" fill="#FFF"/>
  <path d="M147.049 32.866C147.945 32.866 148.681 33.1634 149.274 33.7648C149.868 34.3597 150.171 35.1033 150.171 36.0021C150.171 36.9009 149.875 37.638 149.274 38.2329C148.681 38.8278 147.939 39.1317 147.049 39.1317H144.494V42.8303H143.5V32.8724H147.049V32.866ZM147.049 38.1876C147.662 38.1876 148.171 37.9872 148.565 37.5733C148.978 37.1595 149.178 36.6357 149.178 35.9956C149.178 35.3554 148.978 34.8446 148.565 34.4308C148.165 34.0169 147.655 33.8036 147.049 33.8036H144.494V38.1876H147.049Z" fill="#FFF"/>
  <path d="M159.778 42.9982C158.346 42.9982 157.126 42.5003 156.133 41.5046C155.139 40.4958 154.642 39.2867 154.642 37.8512C154.642 36.4157 155.139 35.2065 156.133 34.2107C157.126 33.202 158.346 32.7041 159.778 32.7041C161.21 32.7041 162.43 33.202 163.423 34.2107C164.417 35.2065 164.914 36.4157 164.914 37.8512C164.914 39.2867 164.417 40.4958 163.423 41.5046C162.436 42.5003 161.21 42.9982 159.778 42.9982ZM159.778 42.0283C160.959 42.0283 161.933 41.6274 162.733 40.8191C163.526 40.0109 163.926 39.0151 163.926 37.8447C163.926 36.6808 163.526 35.6979 162.733 34.8832C161.939 34.0749 160.959 33.6611 159.778 33.6611C158.597 33.6611 157.623 34.0749 156.823 34.8832C156.03 35.6915 155.63 36.6743 155.63 37.8447C155.63 39.0086 156.03 40.0044 156.823 40.8191C157.623 41.6339 158.604 42.0283 159.778 42.0283Z" fill="#FFF"/>
  <path d="M176.133 42.8239L173.804 38.8407H171.023V42.8239H170.03V32.866H174.004C174.83 32.866 175.52 33.1634 176.107 33.7454C176.688 34.3273 176.985 35.0257 176.985 35.8533C176.985 36.5194 176.785 37.1336 176.372 37.6574C175.972 38.1812 175.462 38.5239 174.836 38.7114L177.262 42.8239H176.133ZM171.017 33.8036V37.9031H173.998C174.553 37.9031 175.017 37.7027 175.404 37.3082C175.785 36.8944 175.985 36.4094 175.985 35.8533C175.985 35.2843 175.785 34.7993 175.404 34.4049C175.024 34.004 174.553 33.81 173.998 33.81H171.017V33.8036Z" fill="#FFF"/>
  <path d="M183.082 41.8863H187.908V42.8239H182.088V32.866H187.837V33.8036H183.082V37.3341H187.482V38.2717H183.082V41.8863Z" fill="#FFF"/>
</svg>
