<?xml version="1.0" encoding="utf-8"?>
<!-- Generator: Adobe Illustrator 26.0.2, SVG Export Plug-In . SVG Version: 6.00 Build 0)  -->
<svg version="1.1" id="Layer_1" xmlns="http://www.w3.org/2000/svg" xmlns:xlink="http://www.w3.org/1999/xlink" x="0px" y="0px"
	 viewBox="0 0 389.5 127.8" style="enable-background:new 0 0 389.5 127.8;" xml:space="preserve">
<style type="text/css">
	.st0{fill:url(#SVGID_1_);}
</style>
<g>
	<path d="M19.1,112.4L33,89.5h5.2v38.2h-7.4v-21.3l-9.2,15h-5.1l-9.2-15v21.3H0V89.5h5.2L19.1,112.4z"/>
	<path d="M65.2,96.1v7.9H77v6.5H65.2v10.6h16.1v6.5H57.9V89.5h22.9v6.5H65.2z"/>
	<path d="M124.2,89.5v6.5h-10.1v31.7h-7.4V96.1H96.6v-6.5H124.2z"/>
	<path d="M133.5,127.8l16.4-38.2h5.2l16.4,38.2h-7.7l-3.6-8.5h-15.3l-3.6,8.5H133.5z M147.5,112.7h9.7l-4.9-11.3L147.5,112.7z"/>
	<path d="M179.6,89.5h7.6l10.4,26.1l10.5-26.1h7.6l-15.4,38.2H195L179.6,89.5z"/>
	<path d="M238.9,96.1v7.9h11.7v6.5h-11.7v10.6H255v6.5h-23.5V89.5h22.9v6.5H238.9z"/>
	<path d="M279.8,110.8v16.9h-7.4V89.5h13.9c3.9,0,6.4,1.1,8.4,2.8c2.1,2,3.4,4.7,3.4,7.8s-1.3,5.8-3.4,7.8c-1,1-2.3,1.7-3.8,2.2
		l14.3,17.5h-9.1l-13.6-16.9H279.8z M285.9,104.3c2.1,0,3.1-0.4,3.7-1.1c0.7-0.7,1.1-1.8,1.1-2.9c0-1.1-0.4-2.2-1.1-2.9
		c-0.7-0.7-1.6-1.2-3.7-1.2h-6.1v8.2H285.9z"/>
	<path d="M321.7,117.5c2.2,2.4,5.5,4.2,9,4.2c3.3,0,5.6-2,5.6-4.8c0-4.9-7.1-5.5-12.2-8.5c-3-1.7-5.4-4.4-5.4-8.7
		c0-6.8,6.3-10.8,12.6-10.8c3.9,0,7.5,0.9,11.1,3.6l-3.8,5.5c-1.5-1.4-4.1-2.5-6.6-2.5c-2.8,0-5.9,1.2-5.9,4.1
		c0,6.2,17.6,4.3,17.6,17.1c0,6.8-6.1,11.5-12.9,11.5c-5.1,0-9.9-2.1-13.8-5.7L321.7,117.5z"/>
	<path d="M376.4,110.5v17.3H369v-17.3l-13.1-20.9h8.4l8.4,13.4l8.4-13.4h8.4L376.4,110.5z"/>
</g>
<linearGradient id="SVGID_1_" gradientUnits="userSpaceOnUse" x1="137.6239" y1="35.8475" x2="257.6239" y2="35.8475">
	<stop  offset="0" style="stop-color:#5081C2"/>
	<stop  offset="0.3166" style="stop-color:#5F4594"/>
	<stop  offset="0.568" style="stop-color:#B93F8F"/>
	<stop  offset="0.9852" style="stop-color:#ED8239"/>
</linearGradient>
<path class="st0" d="M172.6,10.2L178.4,0l19.2,33.3L216.9,0l5.8,10.2l-25.1,43.4L172.6,10.2L172.6,10.2z M149,71.7l17.5-30.3
	L184,71.7h11.8L166.5,21l-28.8,50.7H149L149,71.7z M211.3,71.7l17.5-30.3l17.5,30.3h11.3L228.8,21l-29.3,50.7H211.3L211.3,71.7z"/>
</svg>
