<?xml version="1.0" encoding="utf-8"?>
<!-- Generator: Adobe Illustrator 26.0.2, SVG Export Plug-In . SVG Version: 6.00 Build 0)  -->
<svg version="1.1" id="Layer_1" xmlns="http://www.w3.org/2000/svg" xmlns:xlink="http://www.w3.org/1999/xlink" x="0px" y="0px"
	 viewBox="0 0 818.6 135.1" style="enable-background:new 0 0 818.6 135.1;" xml:space="preserve">
<style type="text/css">
	.st0{display:none;}
	.st1{display:inline;}
	.st2{fill-rule:evenodd;clip-rule:evenodd;fill:#FFFFFF;}
	.st3{fill-rule:evenodd;clip-rule:evenodd;fill:#4BB3E6;}
	.st4{fill:#6A767A;}
	.st5{fill:#FFFFFF;}
	.st6{fill-rule:evenodd;clip-rule:evenodd;}
</style>
<g id="Layer_10">
</g>
<g id="Layer_1_00000144334979079384869790000008419813068302534323_">
</g>
<g id="Layer_9">
</g>
<g id="Layer_5">
</g>
<g id="Layer_4" class="st0">
	<g class="st1">
		<g transform="translate(0,-280.06669)">
			<path class="st2" d="M-826-1740c-3.3,0.1-3.3,5,0,5h10.1c1.4,0,2.5,1.1,2.5,2.5v17.6h5c3.4,0,3.4,5,0,5h-7.5c-3.3,0.1-3.3,5,0,5
				h7.5c3.4,0,3.4,5,0,5H-821c-3.4-0.1-3.4,5.1,0,5h12.6c3.4,0,3.4,5,0,5H-826c-3.4-0.1-3.4,5.1,0,5h55.4c2,0,3.9-0.8,5.3-2.2
				l10.1-10.1c1.4-1.4,2.2-3.3,2.2-5.3v-20.1c0-4.1-3.4-7.6-7.5-7.5h-47.8v-2.5c0-4.1-3.4-7.5-7.5-7.5L-826-1740L-826-1740z
				 M-805.8-1679.6c-4.1,0-7.6,3.4-7.6,7.6s3.4,7.6,7.6,7.6c4.1,0,7.6-3.4,7.6-7.6S-801.7-1679.6-805.8-1679.6z M-775.6-1679.6
				c-4.1,0-7.5,3.4-7.5,7.6c0,4.1,3.4,7.6,7.5,7.6s7.6-3.4,7.6-7.6C-768.1-1676.2-771.5-1679.6-775.6-1679.6z"/>
		</g>
		<g>
			<path class="st3" d="M-789.9-1990.3h-8.8c-1.2,0-2.1-1-2.1-2.1l0,0c0-1.2,1-2.1,2.1-2.1h8.8c1.2,0,2.1,1,2.1,2.1l0,0
				C-787.8-1991.2-788.8-1990.3-789.9-1990.3z"/>
			<path class="st3" d="M-789.9-1980.4h-8.8c-1.2,0-2.1-1-2.1-2.1l0,0c0-1.2,1-2.1,2.1-2.1h8.8c1.2,0,2.1,1,2.1,2.1l0,0
				C-787.8-1981.4-788.8-1980.4-789.9-1980.4z"/>
			<path class="st3" d="M-789.9-1970.1h-8.8c-1.2,0-2.1-1-2.1-2.1l0,0c0-1.2,1-2.1,2.1-2.1h8.8c1.2,0,2.1,1,2.1,2.1l0,0
				C-787.8-1971.1-788.8-1970.1-789.9-1970.1z"/>
		</g>
		<g>
			<path class="st3" d="M-770-1990.3h-8.8c-1.2,0-2.1-1-2.1-2.1l0,0c0-1.2,1-2.1,2.1-2.1h8.8c1.2,0,2.1,1,2.1,2.1l0,0
				C-767.9-1991.2-768.9-1990.3-770-1990.3z"/>
			<path class="st3" d="M-770-1980.4h-8.8c-1.2,0-2.1-1-2.1-2.1l0,0c0-1.2,1-2.1,2.1-2.1h8.8c1.2,0,2.1,1,2.1,2.1l0,0
				C-767.9-1981.4-768.9-1980.4-770-1980.4z"/>
			<path class="st3" d="M-770-1970.1h-8.8c-1.2,0-2.1-1-2.1-2.1l0,0c0-1.2,1-2.1,2.1-2.1h8.8c1.2,0,2.1,1,2.1,2.1l0,0
				C-767.9-1971.1-768.9-1970.1-770-1970.1z"/>
		</g>
	</g>
	<g class="st1">
		<g>
			<path class="st4" d="M-1294.5-1773.5c-1.4,0-2.5-0.2-3.4-0.7c-0.9-0.4-1.5-1.2-2-2.1c-0.4-1-0.6-2.3-0.6-3.9l0.1-11.5h-3.3v-2
				l3.4-0.5l0.5-5.8h2.4v5.8h6v2.5h-6v11.5c0,0.9,0.1,1.6,0.3,2.2c0.2,0.5,0.5,1,0.8,1.2c0.3,0.3,0.7,0.5,1,0.6
				c0.4,0.1,0.7,0.2,1.1,0.2l2.5,0.2v2.3L-1294.5-1773.5L-1294.5-1773.5z"/>
			<path class="st4" d="M-1287.1-1773.5v-29.8h3.1v11.2c1-0.7,2.1-1.3,3.5-1.9c1.3-0.5,2.7-0.8,4.2-0.8s2.7,0.3,3.6,0.9
				c0.9,0.6,1.7,1.5,2.1,2.5c0.5,1.1,0.7,2.2,0.7,3.5v14.2h-3.1v-13.8c0-0.9-0.2-1.7-0.5-2.3s-0.9-1.2-1.5-1.6
				c-0.7-0.4-1.4-0.6-2.3-0.6s-1.7,0.1-2.4,0.3c-0.7,0.2-1.4,0.4-2.1,0.7s-1.4,0.7-2.1,1.1v16.3h-3.2V-1773.5z"/>
			<path class="st4" d="M-1256.2-1773.2c-2.2,0-3.9-0.3-5.2-1c-1.3-0.6-2.2-1.8-2.7-3.3c-0.5-1.6-0.8-3.7-0.8-6.4
				c0-2.8,0.3-4.9,0.8-6.5c0.6-1.5,1.5-2.6,2.7-3.3c1.3-0.6,3-0.9,5.1-0.9c1.8,0,3.3,0.2,4.5,0.6c1.2,0.4,2,1.1,2.6,2.1
				s0.8,2.4,0.8,4.2c0,1.2-0.2,2.2-0.7,2.9c-0.5,0.7-1.2,1.3-2.1,1.6c-0.9,0.3-2,0.5-3.2,0.5h-7.6c0,1.7,0.2,3,0.5,4.1
				c0.3,1,1,1.8,1.9,2.2s2.2,0.7,4,0.7h6.7v1.9c-1.2,0.2-2.4,0.3-3.5,0.4C-1253.4-1773.3-1254.7-1773.2-1256.2-1773.2z
				 M-1261.9-1784.7h7.4c1.2,0,2-0.2,2.6-0.6c0.6-0.4,0.8-1.2,0.8-2.3c0-1.2-0.2-2.1-0.5-2.8c-0.3-0.7-0.9-1.1-1.6-1.4
				s-1.7-0.4-3-0.4c-1.5,0-2.6,0.2-3.4,0.6c-0.8,0.4-1.4,1.2-1.8,2.3C-1261.7-1788.2-1261.9-1786.7-1261.9-1784.7z"/>
			<path class="st4" d="M-1232.5-1773.5v-20.8h2.4l0.7,2.3c1-0.7,2.1-1.3,3.5-1.9c1.3-0.5,2.7-0.8,4.1-0.8c1.5,0,2.8,0.3,3.7,1
				c0.9,0.7,1.6,1.5,2.1,2.6c0.4,1.1,0.7,2.2,0.7,3.5v14.2h-3.1v-13.8c0-0.9-0.2-1.7-0.5-2.4c-0.4-0.7-0.8-1.2-1.5-1.6
				c-0.6-0.4-1.4-0.6-2.4-0.6c-0.9,0-1.7,0.1-2.4,0.3c-0.7,0.2-1.4,0.4-2.1,0.7c-0.7,0.3-1.4,0.7-2.1,1.1v16.3L-1232.5-1773.5
				L-1232.5-1773.5z"/>
			<path class="st4" d="M-1201.7-1773.2c-2.2,0-3.9-0.3-5.2-1c-1.3-0.6-2.2-1.8-2.7-3.3c-0.5-1.6-0.8-3.7-0.8-6.4
				c0-2.8,0.3-4.9,0.8-6.5c0.6-1.5,1.5-2.6,2.7-3.3c1.3-0.6,3-0.9,5.1-0.9c1.8,0,3.3,0.2,4.5,0.6c1.2,0.4,2,1.1,2.6,2.1
				s0.8,2.4,0.8,4.2c0,1.2-0.2,2.2-0.7,2.9c-0.5,0.7-1.2,1.3-2.1,1.6c-0.9,0.3-2,0.5-3.2,0.5h-7.6c0,1.7,0.2,3,0.5,4.1
				c0.3,1,1,1.8,1.9,2.2c0.9,0.4,2.2,0.7,4,0.7h6.7v1.9c-1.2,0.2-2.4,0.3-3.5,0.4C-1198.9-1773.3-1200.2-1773.2-1201.7-1773.2z
				 M-1207.3-1784.7h7.4c1.2,0,2-0.2,2.6-0.6c0.6-0.4,0.8-1.2,0.8-2.3c0-1.2-0.2-2.1-0.5-2.8c-0.3-0.7-0.9-1.1-1.6-1.4
				c-0.7-0.3-1.7-0.4-3-0.4c-1.5,0-2.6,0.2-3.4,0.6c-0.8,0.4-1.4,1.2-1.8,2.3C-1207.1-1788.2-1207.3-1786.7-1207.3-1784.7z"/>
			<path class="st4" d="M-1184.8-1773.5l-6.3-20.8h3.2l5.1,17.9l5.3-17.9h2.7l5.3,17.9l5-17.9h3.2l-6.3,20.8h-3.4l-5.1-16.7
				l-5.1,16.7H-1184.8z"/>
			<path class="st4" d="M-1143.2-1773.5l-6.3-20.8h3.2l5.1,17.9l5.3-17.9h2.7l5.3,17.9l5-17.9h3.2l-6.3,20.8h-3.4l-5.1-16.7
				l-5.1,16.7H-1143.2z"/>
			<path class="st4" d="M-1112.9-1773.2c-1.5,0-2.8-0.5-3.8-1.4c-1-0.9-1.5-2.2-1.5-3.9v-1.5c0-1.6,0.5-3,1.6-4
				c1.1-1,2.7-1.5,4.9-1.5h7.1v-2.6c0-0.9-0.1-1.6-0.4-2.2c-0.3-0.6-0.8-1.1-1.6-1.4c-0.8-0.3-1.9-0.5-3.3-0.5h-6.5v-1.8
				c0.9-0.2,2-0.3,3.2-0.4c1.2-0.1,2.6-0.2,4.3-0.2s3.1,0.2,4.2,0.6c1.1,0.4,1.9,1.1,2.5,2.1c0.5,0.9,0.8,2.2,0.8,3.7v14.7h-2.4
				l-0.6-2.4c-0.1,0.1-0.4,0.3-1,0.5c-0.5,0.3-1.2,0.6-2,0.9s-1.7,0.6-2.7,0.8C-1111-1773.4-1111.9-1773.2-1112.9-1773.2z
				 M-1111.6-1775.5c0.5,0,1,0,1.6-0.2s1.2-0.3,1.8-0.4c0.6-0.2,1.2-0.3,1.7-0.5s1-0.3,1.3-0.5c0.3-0.1,0.5-0.2,0.5-0.2v-6.6
				l-6.4,0.3c-1.5,0.1-2.5,0.4-3.2,1.1c-0.6,0.7-1,1.5-1,2.6v0.9c0,0.8,0.2,1.5,0.5,2c0.4,0.5,0.8,0.9,1.3,1.1
				C-1112.7-1775.7-1112.1-1775.6-1111.6-1775.5z"/>
			<path class="st4" d="M-1090.1-1764.2l2.7-9.2c-0.6,0-1.3-0.2-2-0.5c-0.7-0.3-1.4-0.8-2-1.5c-0.6-0.7-1.1-1.7-1.5-2.9l-5-16h3.2
				l4.6,15.3c0.3,0.8,0.6,1.4,0.9,1.8c0.3,0.4,0.7,0.7,1,0.8s0.6,0.2,0.9,0.3c0.2,0,0.4,0,0.4,0l5.3-18.2h3.2l-7.6,26.2l-1.8,3.9
				L-1090.1-1764.2L-1090.1-1764.2z"/>
			<path class="st4" d="M-1057.1-1773.5c-1.4,0-2.5-0.2-3.4-0.7c-0.9-0.4-1.5-1.2-2-2.1c-0.4-1-0.6-2.3-0.6-3.9l0.1-11.5h-3.3v-2
				l3.4-0.5l0.5-5.8h2.4v5.8h6v2.5h-6v11.5c0,0.9,0.1,1.6,0.3,2.2c0.2,0.5,0.5,1,0.8,1.2c0.3,0.3,0.7,0.5,1,0.6
				c0.4,0.1,0.7,0.2,1.1,0.2l2.5,0.2v2.3L-1057.1-1773.5L-1057.1-1773.5z"/>
			<path class="st4" d="M-1041.4-1773.2c-1.5,0-2.8-0.2-4-0.5c-1.1-0.3-2.1-0.9-2.8-1.6c-0.8-0.8-1.3-1.9-1.7-3.3
				c-0.4-1.4-0.5-3.2-0.5-5.3c0-2.2,0.2-4,0.5-5.4c0.4-1.4,0.9-2.5,1.7-3.2c0.8-0.8,1.7-1.3,2.8-1.6c1.1-0.3,2.5-0.4,4-0.4
				s2.8,0.2,4,0.5c1.1,0.3,2.1,0.9,2.8,1.6c0.8,0.8,1.3,1.8,1.7,3.2s0.6,3.2,0.6,5.3c0,2.2-0.2,4-0.6,5.4c-0.4,1.4-0.9,2.5-1.7,3.2
				c-0.7,0.8-1.7,1.3-2.8,1.6C-1038.6-1773.4-1039.9-1773.2-1041.4-1773.2z M-1041.4-1775.8c1,0,1.8-0.1,2.6-0.3
				c0.7-0.2,1.4-0.5,1.9-1.1c0.5-0.6,0.9-1.4,1.1-2.5c0.2-1.1,0.4-2.5,0.4-4.3s-0.1-3.3-0.4-4.3c-0.3-1.1-0.6-1.9-1.1-2.4
				s-1.1-0.9-1.9-1.1c-0.7-0.2-1.6-0.3-2.6-0.3s-1.8,0.1-2.6,0.3c-0.7,0.2-1.3,0.5-1.8,1.1c-0.5,0.5-0.9,1.4-1.1,2.4
				c-0.3,1.1-0.4,2.5-0.4,4.3s0.1,3.2,0.4,4.3c0.3,1.1,0.6,1.9,1.1,2.5c0.5,0.5,1.1,0.9,1.8,1.1S-1042.4-1775.8-1041.4-1775.8z"/>
			<path class="st4" d="M-1016.7-1764.2v-30.1h2.5l0.6,2.1c0.5-0.3,1.1-0.7,1.8-1.1c0.7-0.4,1.5-0.7,2.4-1s1.7-0.4,2.6-0.4
				c1.4,0,2.5,0.3,3.5,0.9c1,0.6,1.7,1.4,2.3,2.4s1,2.1,1.3,3.4s0.4,2.6,0.4,4c0,2.3-0.3,4.3-0.8,5.9c-0.5,1.6-1.3,2.8-2.4,3.6
				c-1.1,0.8-2.5,1.2-4.2,1.2c-1.2,0-2.3-0.2-3.5-0.6c-1.2-0.4-2.3-0.9-3.3-1.4v11L-1016.7-1764.2L-1016.7-1764.2z M-1007.6-1775.8
				c1,0,1.9-0.2,2.7-0.7s1.4-1.3,1.9-2.5s0.7-2.8,0.7-4.9c0-2-0.2-3.5-0.7-4.7s-1.1-2-1.9-2.6c-0.8-0.5-1.6-0.8-2.6-0.8
				c-1.2,0-2.3,0.2-3.3,0.6c-1,0.4-1.9,0.8-2.7,1.2v12.8c0.9,0.5,1.9,0.9,2.9,1.2C-1009.7-1776-1008.6-1775.8-1007.6-1775.8z"/>
			<path class="st4" d="M-988.7-1773.4c-1.2,0-2.2-0.2-3-0.6c-0.8-0.4-1.4-1.1-1.8-2.1c-0.4-1-0.6-2.3-0.6-4v-23.1h3.1v22.7
				c0,1.2,0.1,2.2,0.4,2.8c0.2,0.6,0.6,1.1,1,1.3c0.4,0.2,1,0.4,1.6,0.5l2.1,0.2v2.2L-988.7-1773.4L-988.7-1773.4z"/>
			<path class="st4" d="M-978.6-1773.2c-1.5,0-2.8-0.5-3.8-1.4c-1-0.9-1.5-2.2-1.5-3.9v-1.5c0-1.6,0.5-3,1.6-4s2.7-1.5,4.9-1.5h7.1
				v-2.6c0-0.9-0.2-1.6-0.4-2.2c-0.3-0.6-0.8-1.1-1.6-1.4s-1.9-0.5-3.3-0.5h-6.5v-1.8c0.9-0.2,2-0.3,3.2-0.4
				c1.2-0.1,2.6-0.2,4.3-0.2s3.1,0.2,4.2,0.6c1.1,0.4,1.9,1.1,2.5,2.1c0.5,0.9,0.8,2.2,0.8,3.7v14.7h-2.4l-0.6-2.4
				c-0.1,0.1-0.4,0.3-1,0.5s-1.2,0.6-2,0.9s-1.7,0.6-2.7,0.8C-976.8-1773.4-977.7-1773.2-978.6-1773.2z M-977.3-1775.5
				c0.5,0,1,0,1.6-0.2c0.6-0.1,1.2-0.3,1.8-0.4c0.6-0.2,1.2-0.3,1.7-0.5s1-0.3,1.3-0.5c0.3-0.1,0.5-0.2,0.5-0.2v-6.6l-6.4,0.3
				c-1.5,0.1-2.5,0.4-3.2,1.1c-0.6,0.7-1,1.5-1,2.6v0.9c0,0.8,0.2,1.5,0.5,2c0.4,0.5,0.8,0.9,1.3,1.1
				C-978.4-1775.7-977.9-1775.6-977.3-1775.5z"/>
			<path class="st4" d="M-955.8-1764.2l2.7-9.2c-0.7,0-1.3-0.2-2-0.5s-1.4-0.8-2-1.5s-1.1-1.7-1.5-2.9l-5-16h3.2l4.6,15.3
				c0.3,0.8,0.6,1.4,0.9,1.8c0.3,0.4,0.7,0.7,1,0.8c0.3,0.2,0.6,0.2,0.9,0.3c0.2,0,0.4,0,0.4,0l5.3-18.2h3.2l-7.6,26.2l-1.8,3.9
				L-955.8-1764.2L-955.8-1764.2z"/>
		</g>
	</g>
</g>
<g id="Layer_6" class="st0">
	<g class="st1">
		<path class="st5" d="M-773.3-2010v-2.8c0-7.4-6.2-13.4-13.8-13.4s-13.8,6-13.8,13.4v2.8c0,1.5,1.2,2.7,2.7,2.7s2.8-1.2,2.8-2.7
			c0,0,0,0,0-0.1v-2.8c0-4.5,3.7-8.1,8.3-8.1s8.2,3.6,8.2,8.1v2.8c0,1.5,1.2,2.7,2.7,2.7h0.1C-774.5-2007.3-773.3-2008.5-773.3-2010
			L-773.3-2010z"/>
		<path class="st5" d="M-756.9-1965.8c0.8,4.9-3.1,9.4-8.2,9.4h-44.1c-5,0-9-4.5-8.2-9.4l5.5-32.2c0.7-3.9,4.1-6.7,8.2-6.7h33
			c4,0,7.5,2.8,8.2,6.7L-756.9-1965.8z M-773.3-1980.7v-10.7l0,0c0-1.5-1.2-2.7-2.7-2.7h-0.1c-1.5,0-2.7,1.3-2.7,2.7v10.7
			c0,4.5-3.6,8.1-8.2,8.1c-4.6,0-8.3-3.6-8.3-8.1v-10.7c0,0,0,0,0-0.1c0-1.5-1.3-2.7-2.8-2.7s-2.7,1.2-2.7,2.7v10.7
			c0,7.4,6.2,13.4,13.8,13.4C-779.5-1967.2-773.3-1973.3-773.3-1980.7z"/>
	</g>
</g>
<g id="Layer_3" class="st0">
</g>
<g id="Layer_8" class="st0">
	<g class="st1">
		<g>
			<circle class="st5" cx="-768.6" cy="-1985.2" r="3.4"/>
			<path class="st5" d="M-758.4-1998.3v-7.4c0-5.6-4.6-10.2-10.2-10.2h-40.9c-5.6,0-10.2,4.6-10.2,10.2v40.9
				c0,5.6,4.6,10.2,10.2,10.2h40.9c5.6,0,10.2-4.6,10.2-10.2v-7.4c4-1.4,6.8-5.2,6.8-9.6v-6.8
				C-751.5-1993.1-754.4-1996.8-758.4-1998.3z M-789-1981.8h-6.8v6.8h-6.8v-6.8h-6.8v-6.8h6.8v-6.8h6.8v6.8h6.8V-1981.8z
				 M-758.4-1981.8c0,1.9-1.5,3.4-3.4,3.4h-13.6v-13.6h13.6c1.9,0,3.4,1.5,3.4,3.4V-1981.8z"/>
		</g>
	</g>
</g>
<g id="Layer_7" class="st0">
	<g transform="translate(0,-280.06669)" class="st1">
		<path class="st2" d="M-816.8-1736.8c-3.9,0-7.2,3.2-7.2,7.2v48c0,3.9,3.2,7.2,7.2,7.2h52.8c3.9,0,7.2-3.2,7.2-7.2v-7.2h-12
			c-6.6,0-12-5.4-12-12s5.4-12,12-12h12v-9.6H-812c-1.3,0-2.4-1.1-2.4-2.4s1.1-2.4,2.4-2.4h55.1v-2.4c0-3.9-3.2-7.2-7.2-7.2H-816.8z
			 M-768.9-1708.1c-4,0-7.2,3.2-7.2,7.2s3.2,7.2,7.2,7.2h14.4c1.4,0,2.4-1,2.4-2.4v-9.6c0-1.4-1-2.4-2.4-2.4L-768.9-1708.1
			L-768.9-1708.1z"/>
	</g>
</g>
<g id="Layer_2_00000075867766915222604470000016612454836082182591_">
	<g>
		<g>
			<path d="M803.4,32.2h-21.6V10.6c0-2.6-2.4-4.7-5.5-4.7h-9.7c-3,0-5.5,2.1-5.5,4.7v21.6h-21.6c-2.6,0-4.7,2.4-4.7,5.5v9.7
				c0,3,2.1,5.5,4.7,5.5h21.6v21.6c0,2.6,2.4,4.7,5.5,4.7h9.7c3,0,5.5-2.1,5.5-4.7V52.9h21.6c2.6,0,4.7-2.5,4.7-5.5v-9.7
				C808.1,34.7,806,32.2,803.4,32.2z"/>
		</g>
		<g>
			<path class="st6" d="M88.6,31.3H75.1c-0.4,0-0.8,0.2-1.1,0.5c-0.3,0.4-0.6,0.7-0.8,1.1L53,66.1c-0.2,0.3-0.4,0.7-0.7,0.9
				c-0.4,0.4-0.9,0.7-1.5,0.7h-0.1c-0.6,0-1.1-0.2-1.5-0.5c-0.3-0.2-0.5-0.5-0.7-0.8L28.1,32.9c-0.2-0.4-0.5-0.7-0.9-1
				c-0.3-0.3-0.6-0.4-1-0.5H12.8c-0.6,0-1.2,0.3-1.7,0.7c-0.5,0.5-0.7,1.1-0.7,1.8v51.7c0,0.6,0.3,1.2,0.7,1.7s1,0.7,1.7,0.7h13.1
				c0.6,0,1.2-0.2,1.7-0.7c0.4-0.5,0.7-1.1,0.7-1.8V68.9c0-0.8,0.2-1.2,0.5-1.2c0.4,0,0.8,0.4,1.2,1.2l14.5,20.5
				c0.5,0.7,1.2,1.3,2,1.7c1.1,0.3,2.2,0.5,3.3,0.4h2.3c1,0.1,2-0.1,2.9-0.5c0.8-0.6,1.6-1.4,2.2-2.3c1.5-2,3.9-5.4,7.1-9.9
				c3.3-4.5,5.6-7.9,7-10c0.5-0.6,0.9-0.9,1.2-0.9s0.5,0.4,0.5,1.2v53c0,0.6,0.2,1.2,0.7,1.7c0.4,0.5,1,0.7,1.7,0.7h13.2
				c0.6,0,1.2-0.2,1.7-0.7c0.4-0.4,0.7-1,0.7-1.7V33.9c0-0.7-0.2-1.3-0.7-1.8C89.8,31.6,89.2,31.3,88.6,31.3z"/>
			<path class="st6" d="M133.1,30.9h-13.4c-0.6,0-1.2,0.3-1.7,0.7c-0.5,0.5-0.8,1.1-0.8,1.8v88.8c0,0.6,0.3,1.2,0.7,1.7
				c0.5,0.5,1.1,0.8,1.8,0.7h13.4c0.6,0,1.2-0.3,1.7-0.7c0.4-0.4,0.7-1,0.7-1.7V33.4c0-0.7-0.3-1.3-0.8-1.8
				C134.3,31.2,133.7,30.9,133.1,30.9z"/>
			<path class="st6" d="M250.5,74.8c-1.5-0.8-3.3-1.2-5-1.1H217c-0.7,0-1.4,0.3-1.9,0.8s-0.8,1.2-0.8,1.9v9.8c0,0.7,0.3,1.4,0.8,1.9
				s1.2,0.8,1.9,0.8h17.3c-2.1,5.9-5.9,11-10.8,14.8c-4.9,3.7-11,5.7-17.1,5.6c-5.5,0-10.9-1.4-15.7-4.2c-4.8-2.7-8.7-6.7-11.4-11.4
				c-5.6-9.7-5.6-21.6,0-31.3c2.7-4.7,6.7-8.7,11.4-11.4c4.7-2.8,10.2-4.2,15.7-4.2l3.5,0.1l0,0c1.3,0.1,2.5-0.8,2.6-2.1l2.2-11.7
				c0.2-0.7,0-1.5-0.4-2.1s-1.1-1-1.9-1.1c-2-0.3-4-0.4-6-0.4c-17.4-0.1-33.5,9.2-42.3,24.3c-13.4,23.2-5.4,52.9,17.8,66.3
				c7.4,4.3,15.9,6.6,24.4,6.5c8.3,0.1,16.5-2.1,23.6-6.5c7-4.3,12.6-10.3,16.4-17.6c4-7.5,6-15.9,5.9-24.5
				C252.2,76.6,251.6,75.4,250.5,74.8z"/>
			<path class="st6" d="M361,76.1c-1.5-0.8-3.3-1.2-5-1.1h-28.5c-0.7,0-1.4,0.3-1.9,0.8c-0.5,0.5-0.8,1.2-0.8,1.9v9.8
				c0,0.7,0.3,1.4,0.8,1.9c0.5,0.5,1.2,0.8,1.9,0.8h17.3c-2.1,5.9-5.9,11-10.8,14.8c-4.9,3.7-11,5.7-17.1,5.6
				c-5.5,0-10.9-1.4-15.7-4.2c-4.8-2.7-8.7-6.7-11.4-11.4c-5.6-9.7-5.6-21.6,0-31.3c2.7-4.7,6.7-8.7,11.4-11.4
				c4.7-2.8,10.2-4.2,15.7-4.2l3.5,0.1l0,0c1.3,0.1,2.5-0.8,2.7-2.1l2.1-11.7c0-0.1,0.1-0.3,0.1-0.4c0.1-1.4-0.9-2.7-2.3-2.8
				c-2-0.3-4-0.4-6-0.4c-17.4-0.1-33.5,9.2-42.3,24.3c-13.4,23.2-5.4,52.9,17.8,66.3c7.4,4.3,15.8,6.5,24.4,6.5
				c8.3,0.1,16.5-2.1,23.6-6.5c7-4.3,12.6-10.3,16.4-17.6c4-7.5,6-15.9,5.9-24.5C362.8,78,362.1,76.8,361,76.1z"/>
			<g>
				<path d="M390.2,117c0.4-0.2,0.8-0.5,0.9-0.9l3.2-8.9c0.1-0.3,0.1-0.6,0-0.9s-0.3-0.5-0.6-0.7l-5.4-2.1c-0.8-0.4-1.4-0.3-1.9,0.3
					c-1.4,2.5-2.5,4.4-3.3,5.8c-0.6,0.9-1,1.9-1.2,3c0.1,0.4,0.3,0.8,0.7,1.1c1.9,1.4,4,2.5,6.1,3.3
					C389.1,117.1,389.7,117.2,390.2,117z"/>
				<path d="M438,78.8c-4.8-2.3-9.7-4.4-14.7-6.1c-2.6-0.9-5.7-2.2-9.4-3.9c-2.5-1.1-5-2.4-7.4-3.8c-3.1-2-4.7-4.3-4.7-6.9
					c0.1-1.9,0.8-3.6,2.1-5c1.6-1.8,3.5-3.2,5.7-4.2c3.3-1.3,6.8-1.9,10.3-1.9c3.2,0,6.3,0.5,9.4,1.3c3.3,1,6.5,2.4,9.5,4.1
					c0.4,0.3,0.9,0.4,1.3,0.4c0.4,0,0.9-0.1,1.2-0.4l1.7-2.3c1.7-2.2,3.2-4.5,4.5-7c0.1-0.2,0-0.5-0.3-0.9c-0.3-0.5-0.6-0.9-1.1-1.2
					c-2.4-2-5-3.8-7.8-5.2c-3.4-1.5-7-2.6-10.7-3.2c-4.2-0.7-8.4-1-12.6-0.8c-5.5,0.5-10.8,2.2-15.7,4.9c-4.3,2.4-7.9,5.8-10.6,9.8
					c-5,7.4-5,17.2,0,24.6c2.4,3.3,5.7,5.8,9.4,7.4c5.4,2.5,10.9,4.6,16.5,6.5c3.6,1.1,7.1,2.4,10.6,3.9c2,0.8,3.9,2,5.3,3.6
					c1.4,1.9,2.2,4.2,2.3,6.6c0,3.1-1.6,6-4.2,7.6c-3.2,2.2-7,3.2-10.9,3.1l-5.6-0.1c-0.1,0-0.1,0-0.2,0c-1.3-0.1-2.3,0.9-2.4,2.2
					c-0.2,0.8-0.3,1.7-0.4,2.6c-0.1,0.9-0.2,1.8-0.3,2.5l-0.5,3.9c-0.2,0.6-0.1,1.3,0.3,1.8c0.5,0.5,1.2,0.7,1.9,0.7
					c1.8,0.3,3.6,0.5,5.5,0.5c5.9,0.1,11.8-1,17.3-3.3c4.6-1.9,8.6-5,11.6-9c5-7.7,5.4-17.5,1.1-25.6C444,83,441.3,80.5,438,78.8z"
					/>
			</g>
			<path class="st6" d="M527.6,31.2h-58.5c-0.5,0-0.9,0.2-1.2,0.5c-0.4,0.4-0.5,0.8-0.5,1.3v12.4c0,0.5,0.2,1,0.5,1.3
				s0.7,0.5,1.2,0.6h7.6c0.8,0,1.7,0.3,2.3,0.9s1,1.4,1,2.2v72.2c0,0.1,0,0.3,0,0.4c0.1,0.8,0.8,1.4,1.7,1.3h15.9
				c0.4,0,0.9-0.2,1.2-0.5c0.4-0.3,0.6-0.8,0.5-1.3V50.3c0-0.8,0.3-1.6,1-2.1c0.6-0.6,1.4-1,2.3-0.9h25.1c0.5,0,0.9-0.2,1.2-0.6
				c0.4-0.4,0.5-0.8,0.5-1.3V33.1c0-0.5-0.2-1-0.5-1.3C528.5,31.4,528,31.2,527.6,31.2z"/>
			<path class="st6" d="M689.1,86.9c-0.1-0.4-0.1-0.9-0.1-1.4s0.3-1,0.8-1.3c3.6-2.7,6.6-6.2,8.6-10.3c4.5-8.9,4.1-19.5-0.9-28.1
				c-2.7-4.5-6.5-8.2-11-10.8c-4.6-2.7-9.9-4.1-15.3-4h-27.7c-0.7-0.1-1.3,0.2-1.8,0.6c-0.5,0.5-0.8,1.1-0.7,1.8v21.5
				c0,0.9,0.4,1.7,1,2.4c0.6,0.6,1.5,1,2.3,1h8.8c0.9,0,1.8-0.3,2.4-1c0.6-0.6,0.9-1.5,0.9-2.4v-3.3c0-0.9,0.4-1.7,1-2.3
				c0.6-0.7,1.5-1,2.5-1h11.2c3.4-0.1,6.6,1.2,9,3.6c2.4,2.3,3.7,5.5,3.7,8.8c0.1,3.3-1.3,6.4-3.7,8.7c-2.4,2.4-5.6,3.7-9,3.7h-27.7
				c-0.1,0-0.1,0-0.2,0c-1.4,0-2.5,1.2-2.5,2.6v46.7c0,0.6,0.3,1.2,0.7,1.7c0.5,0.4,1.2,0.7,1.9,0.6h10.4c0.7,0,1.3-0.2,1.8-0.7
				c0.5-0.4,0.7-1,0.7-1.7V92.9c-0.1-0.8,0.2-1.5,0.9-1.9c0.8-0.4,1.6-0.5,2.5-0.5H671c0.9-0.1,1.8,0,2.7,0.3
				c0.5,0.2,0.9,0.6,1.1,1.1l13.9,31.3c0.2,0.6,0.7,1.1,1.3,1.3c0.7,0.2,1.5,0.3,2.2,0.3h11c1.3,0,1.9-0.5,1.9-1.5
				c0-0.6-0.2-1.2-0.5-1.7L689.1,86.9z"/>
			<g>
				<path d="M566.5,58.8c-0.4-0.4-1-0.7-1.7-0.7h-11.4c-0.6,0-1.2,0.2-1.7,0.7c-0.5,0.4-0.7,1-0.7,1.7v61.7c0,0.6,0.3,1.2,0.7,1.7
					c0.4,0.4,1.1,0.7,1.7,0.6h62.3c0.6,0,1.2-0.3,1.7-0.7c0.4-0.5,0.7-1,0.7-1.7v-11.5c0-0.6-0.2-1.2-0.7-1.7
					c-0.4-0.4-1-0.7-1.7-0.7h-46c-0.6,0-1.2-0.3-1.7-0.8c-0.5-0.4-0.8-1-0.8-1.7V91.1c0-1.9,1-2.8,3.1-2.8h34.1
					c0.6,0,1.2-0.2,1.7-0.6c0.4-0.4,0.7-0.9,0.7-1.5V74.7c0-0.6-0.2-1.2-0.7-1.5c-0.5-0.4-1.1-0.6-1.7-0.6h-33.7
					c-2.3,0-3.5-0.9-3.5-2.5v-9.6C567.2,59.9,566.9,59.3,566.5,58.8z"/>
				<path d="M615.6,31.1h-62.1c-0.6,0-1.2,0.2-1.7,0.7c-0.5,0.4-0.7,1-0.7,1.7V45c0,0.7,0.2,1.3,0.7,1.8c0.4,0.5,1,0.7,1.7,0.7h62.1
					c0.7,0,1.4-0.3,1.8-0.8c0.4-0.4,0.7-1,0.7-1.7V33.5c0-0.6-0.3-1.2-0.7-1.7C616.9,31.4,616.2,31.1,615.6,31.1z"/>
			</g>
		</g>
	</g>
</g>
</svg>
